<svg width="20" height="20" viewBox="0 0 20 20" fill="none" xmlns="http://www.w3.org/2000/svg">
<path d="M4.58333 7.08334C2.05317 7.08609 0.00275567 9.13651 0 11.6667V14.5833C0 14.8135 0.186548 15 0.416667 15H1.925C2.03324 15.0001 2.12341 15.083 2.1325 15.1908L2.50167 19.6183C2.5199 19.8347 2.70122 20.0008 2.91833 20H6.25167C6.46878 20.0008 6.6501 19.8347 6.66833 19.6183L7.0375 15.1908C7.04659 15.083 7.13676 15.0001 7.245 15H8.75333C8.98345 15 9.17 14.8135 9.17 14.5833V11.6667C9.16724 9.13521 7.1148 7.08425 4.58333 7.08334Z" fill="#FF5252"/>
<path d="M4.58335 6.25C6.19418 6.25 7.50002 4.94416 7.50002 3.33333C7.50002 1.7225 6.19418 0.416664 4.58335 0.416664C2.97252 0.416664 1.66669 1.7225 1.66669 3.33333C1.66669 4.94416 2.97252 6.25 4.58335 6.25Z" fill="#FF5252"/>
<path d="M19.8167 1.38083C19.7301 1.29876 19.6215 1.24373 19.5042 1.2225C19.1905 1.08152 18.8224 1.14772 18.5775 1.38917L14.7308 5.23667C14.6492 5.31782 14.5174 5.31782 14.4358 5.23667L13.4533 4.25417C13.1264 3.93836 12.6066 3.94287 12.2852 4.26432C11.9637 4.58576 11.9592 5.10552 12.275 5.4325L13.5892 6.75C14.1388 7.29776 15.0279 7.29776 15.5775 6.75L19.7558 2.57167C19.9284 2.39515 20.0123 2.15026 19.9842 1.905C20.0145 1.71361 19.9524 1.51916 19.8167 1.38083Z" fill="#FF5252"/>
<path d="M19.2075 5.99167C18.9964 5.92542 18.7677 5.94581 18.5716 6.04836C18.3756 6.1509 18.2284 6.32717 18.1625 6.53833C17.5869 8.37443 15.7151 9.47696 13.8302 9.09009C11.9453 8.70323 10.6591 6.95254 10.8533 5.03818C11.0475 3.12382 12.6591 1.6671 14.5833 1.66667C15.0436 1.66667 15.4166 1.29357 15.4166 0.833334C15.4166 0.373097 15.0436 5.11673e-07 14.5833 5.11673e-07C11.8033 -0.00119773 9.47379 2.10228 9.19218 4.86795C8.91056 7.63362 10.7683 10.1635 13.4915 10.7226C16.2146 11.2818 18.919 9.68869 19.75 7.03583C19.8877 6.59775 19.6451 6.13079 19.2075 5.99167Z" fill="#FF5252"/>
<path d="M4.58333 7.08334C2.05317 7.08609 0.00275567 9.13651 0 11.6667V14.5833C0 14.8135 0.186548 15 0.416667 15H1.925C2.03324 15.0001 2.12341 15.083 2.1325 15.1908L2.50167 19.6183C2.5199 19.8347 2.70122 20.0008 2.91833 20H6.25167C6.46878 20.0008 6.6501 19.8347 6.66833 19.6183L7.0375 15.1908C7.04659 15.083 7.13676 15.0001 7.245 15H8.75333C8.98345 15 9.17 14.8135 9.17 14.5833V11.6667C9.16724 9.13521 7.1148 7.08425 4.58333 7.08334Z" fill="#FF5252"/>
<path d="M4.58335 6.25C6.19418 6.25 7.50002 4.94416 7.50002 3.33333C7.50002 1.7225 6.19418 0.416664 4.58335 0.416664C2.97252 0.416664 1.66669 1.7225 1.66669 3.33333C1.66669 4.94416 2.97252 6.25 4.58335 6.25Z" fill="#FF5252"/>
<path d="M19.8167 1.38083C19.7301 1.29876 19.6215 1.24373 19.5042 1.2225C19.1905 1.08152 18.8224 1.14772 18.5775 1.38917L14.7308 5.23667C14.6492 5.31782 14.5174 5.31782 14.4358 5.23667L13.4533 4.25417C13.1264 3.93836 12.6066 3.94287 12.2852 4.26432C11.9637 4.58576 11.9592 5.10552 12.275 5.4325L13.5892 6.75C14.1388 7.29776 15.0279 7.29776 15.5775 6.75L19.7558 2.57167C19.9284 2.39515 20.0123 2.15026 19.9842 1.905C20.0145 1.71361 19.9524 1.51916 19.8167 1.38083Z" fill="#FF5252"/>
<path d="M19.2075 5.99167C18.9964 5.92542 18.7677 5.94581 18.5716 6.04836C18.3756 6.1509 18.2284 6.32717 18.1625 6.53833C17.5869 8.37443 15.7151 9.47696 13.8302 9.09009C11.9453 8.70323 10.6591 6.95254 10.8533 5.03818C11.0475 3.12382 12.6591 1.6671 14.5833 1.66667C15.0436 1.66667 15.4166 1.29357 15.4166 0.833334C15.4166 0.373097 15.0436 5.11673e-07 14.5833 5.11673e-07C11.8033 -0.00119773 9.47379 2.10228 9.19218 4.86795C8.91056 7.63362 10.7683 10.1635 13.4915 10.7226C16.2146 11.2818 18.919 9.68869 19.75 7.03583C19.8877 6.59775 19.6451 6.13079 19.2075 5.99167Z" fill="#FF5252"/>
</svg>
