<svg width="20" height="20" viewBox="0 0 20 20" fill="none" xmlns="http://www.w3.org/2000/svg">
<path d="M7.52938 19.8039C7.62228 19.8003 7.71403 19.782 7.80126 19.7498C8.1096 19.6321 8.1971 19.3736 8.51835 17.7524C8.84169 16.1131 9.01836 15.728 9.81129 14.8454C11.3071 13.1074 11.3373 12.4055 12.5453 10.8434C13.1101 10.112 13.9588 9.7821 14.777 9.62643C14.6984 6.86094 14.7709 4.08919 14.7451 1.32224C14.7327 1.25031 14.725 1.17765 14.722 1.10472C14.4232 1.09093 14.1341 1.07442 13.859 1.05311C13.4851 1.01675 12.8911 0.90914 12.5405 0.812185C9.29253 0.147717 6.1404 0.299416 2.64307 0.30464C2.35803 0.304407 2.08284 0.409193 1.86977 0.599091C1.6567 0.788988 1.52061 1.05077 1.48734 1.33469C1.45407 1.61862 1.52595 1.90491 1.68931 2.13918C1.85268 2.37345 2.09615 2.53937 2.37348 2.60542H1.69951C1.32437 2.60577 0.961439 2.73916 0.674896 2.982C0.388353 3.22484 0.19666 3.56148 0.133718 3.9324C0.070776 4.30332 0.140638 4.68461 0.330952 5.00885C0.521265 5.33309 0.819768 5.57938 1.17367 5.70418C0.825703 5.79867 0.520113 6.00904 0.307083 6.30072C0.0940533 6.5924 -0.0137539 6.94807 0.00136566 7.30931C0.0164852 7.67056 0.153633 8.01591 0.390286 8.28866C0.626941 8.56141 0.949034 8.74535 1.30367 8.81026C0.920586 8.93162 0.593434 9.18645 0.381379 9.52868C0.169324 9.87091 0.0863619 10.2779 0.147493 10.6762C0.208625 11.0744 0.409814 11.4376 0.714684 11.7C1.01955 11.9624 1.40798 12.1067 1.80972 12.1069H6.30124C6.90541 12.1533 6.93729 12.2803 6.93729 12.5837C6.93729 12.73 6.7427 13.3706 6.50478 14.0084C5.93165 15.6631 5.16227 18.0253 6.38228 19.2433C6.74479 19.5776 7.1375 19.82 7.52938 19.8037V19.8039Z" fill="#FF5252"/>
<path d="M19.3725 10.4219C19.455 10.4222 19.5367 10.4062 19.6129 10.3747C19.6892 10.3432 19.7585 10.2969 19.8168 10.2385C19.8751 10.18 19.9213 10.1105 19.9528 10.0341C19.9842 9.9576 20.0003 9.87566 20 9.79295V0.824922C20.0003 0.742197 19.9843 0.66023 19.9528 0.583746C19.9214 0.507262 19.8752 0.437775 19.8169 0.37929C19.7585 0.320804 19.6892 0.274476 19.613 0.242978C19.5367 0.21148 19.455 0.195433 19.3725 0.195765H15.9214C15.8389 0.19546 15.7572 0.211527 15.681 0.243037C15.6047 0.274549 15.5355 0.32088 15.4772 0.379363C15.4188 0.437846 15.3727 0.507324 15.3412 0.583795C15.3098 0.660264 15.2938 0.742214 15.2941 0.824922V9.79295C15.2938 9.87564 15.3099 9.95757 15.3413 10.034C15.3727 10.1105 15.4189 10.1799 15.4772 10.2384C15.5355 10.2968 15.6048 10.3431 15.681 10.3746C15.7573 10.4061 15.839 10.4222 15.9214 10.4219H19.3725Z" fill="#FF5252"/>
</svg>
