<svg width="21" height="21" viewBox="0 0 21 21" fill="none" xmlns="http://www.w3.org/2000/svg">
<path d="M8.94245 19.9993L8.90382 19L8.9009 19.0001L8.94245 19.9993ZM9.19322 19.9494L9.54015 20.8873L9.54968 20.8837L9.19322 19.9494ZM9.85462 18.1071L10.8355 18.3015L10.8357 18.3006L9.85462 18.1071ZM11.0471 15.4259L11.791 16.0942L11.7981 16.0863L11.8051 16.0782L11.0471 15.4259ZM13.5688 11.7347L14.3599 12.3464L14.3603 12.3459L13.5688 11.7347ZM14.7806 2.70472L14.6838 3.70003L14.6935 3.70098L14.7033 3.70173L14.7806 2.70472ZM13.5644 2.48251L13.8309 1.51868L13.7981 1.50961L13.7648 1.5028L13.5644 2.48251ZM4.43561 2.01438L4.43479 3.01438L4.43711 3.01438L4.43561 2.01438ZM4.18696 4.13647V5.13647C4.69413 5.13647 5.12098 4.75682 5.18014 4.25311C5.23929 3.74941 4.91201 3.28119 4.41865 3.16368L4.18696 4.13647ZM3.56534 4.13647V3.13647H3.5644L3.56534 4.13647ZM3.08033 6.99459L3.3424 7.95964C3.76478 7.84494 4.06349 7.46889 4.07965 7.03151C4.09581 6.59413 3.82566 6.19706 3.4129 6.05151L3.08033 6.99459ZM3.20024 9.85944L3.50223 10.8128C3.94006 10.6741 4.22712 10.255 4.19826 9.79661C4.16941 9.33825 3.83205 8.95848 3.38029 8.87579L3.20024 9.85944ZM3.66699 12.9001L3.66657 13.9001H3.66699V12.9001ZM7.80969 12.9001L7.88624 11.903L7.84802 11.9001H7.80969V12.9001ZM7.99743 14.6539L7.06051 14.3043L7.05637 14.3154L7.0525 14.3266L7.99743 14.6539ZM7.88444 19.4822L7.17792 20.1899L7.19193 20.2039L7.20648 20.2173L7.88444 19.4822ZM8.98108 20.9985C9.17216 20.9912 9.36083 20.9536 9.54013 20.8873L8.84631 19.0115C8.8647 19.0047 8.88412 19.0008 8.90382 19L8.98108 20.9985ZM9.54968 20.8837C9.73626 20.8125 9.94871 20.6934 10.1346 20.4763C10.2999 20.2831 10.396 20.0674 10.4613 19.8843C10.5844 19.5392 10.6927 19.0225 10.8355 18.3015L8.87369 17.9127C8.72025 18.6871 8.64003 19.0373 8.57757 19.2124C8.55013 19.2893 8.55419 19.247 8.61516 19.1758C8.69665 19.0806 8.79237 19.032 8.83675 19.0151L9.54968 20.8837ZM10.8357 18.3006C10.9854 17.542 11.0834 17.1772 11.2016 16.9125C11.3071 16.6762 11.4478 16.4763 11.791 16.0942L10.3033 14.7576C9.91513 15.1896 9.60873 15.5743 9.37532 16.0972C9.15463 16.5915 9.02211 17.1603 8.87352 17.9136L10.8357 18.3006ZM11.8051 16.0782C12.5457 15.2177 12.9314 14.6017 13.2697 14.0261C13.5968 13.4695 13.8493 13.0067 14.3599 12.3464L12.7777 11.1229C12.1742 11.9034 11.8558 12.4847 11.5454 13.0128C11.2463 13.5218 10.9283 14.031 10.2892 14.7736L11.8051 16.0782ZM14.3603 12.3459C14.3842 12.3149 14.4753 12.2251 14.681 12.0976C14.8736 11.9783 15.1144 11.8577 15.378 11.7457C15.9183 11.5159 16.4498 11.365 16.6958 11.3257L16.3798 9.35079C15.9269 9.42325 15.2345 9.63333 14.5953 9.90518C14.269 10.0439 13.9312 10.2094 13.6274 10.3976C13.3368 10.5777 13.0139 10.8171 12.7774 11.1234L14.3603 12.3459ZM16.4714 1.70579C16.2957 1.69768 15.903 1.70364 15.583 1.70739C15.4101 1.70942 15.2435 1.71116 15.1053 1.71123C15.0362 1.71126 14.9777 1.71087 14.9312 1.71001C14.9081 1.70959 14.8898 1.70908 14.8759 1.70855C14.8612 1.70799 14.856 1.70757 14.8578 1.70771L14.7033 3.70173C14.8875 3.71601 15.2928 3.71093 15.6064 3.70725C15.9764 3.70292 16.2793 3.69905 16.3792 3.70366L16.4714 1.70579ZM14.8773 1.70941C14.5856 1.68105 14.0948 1.59165 13.8309 1.51868L13.2979 3.44634C13.6808 3.55221 14.2857 3.66132 14.6838 3.70003L14.8773 1.70941ZM13.7648 1.5028C10.6412 0.863771 7.59518 1.00966 4.43412 1.01438L4.43711 3.01438C7.72751 3.00946 10.4961 2.87551 13.364 3.46222L13.7648 1.5028ZM4.43643 1.01438C3.92752 1.01396 3.43666 1.20108 3.05702 1.53943L4.38772 3.03249C4.40112 3.02055 4.4179 3.01437 4.43479 3.01438L4.43643 1.01438ZM3.05702 1.53943C2.67745 1.87773 2.43555 2.34352 2.37644 2.84806L4.36285 3.08082C4.3651 3.0616 4.37425 3.0445 4.38772 3.03249L3.05702 1.53943ZM2.37644 2.84806C2.31732 3.35258 2.44497 3.86158 2.73568 4.27845L4.37618 3.13445C4.36553 3.11917 4.36059 3.10005 4.36285 3.08082L2.37644 2.84806ZM2.73568 4.27845C3.02645 4.69541 3.46029 4.99137 3.95528 5.10926L4.41865 3.16368C4.40206 3.15973 4.38678 3.14964 4.37618 3.13445L2.73568 4.27845ZM4.18696 3.13647H3.56534V5.13647H4.18696V3.13647ZM3.5644 3.13647C2.98161 3.13702 2.4182 3.34427 1.97376 3.72092L3.26683 5.2467C3.35097 5.17539 3.45705 5.13658 3.56627 5.13647L3.5644 3.13647ZM1.97376 3.72092C1.52939 4.09752 1.23264 4.61909 1.13524 5.1931L3.10705 5.5277C3.12575 5.41749 3.18262 5.31806 3.26683 5.2467L1.97376 3.72092ZM1.13524 5.1931C1.03784 5.76708 1.14589 6.35727 1.44064 6.85945L3.16548 5.84706C3.10917 5.75112 3.08834 5.63795 3.10705 5.5277L1.13524 5.1931ZM1.44064 6.85945C1.73544 7.3617 2.19824 7.74389 2.74777 7.93767L3.4129 6.05151C3.30959 6.01508 3.22175 5.94292 3.16548 5.84706L1.44064 6.85945ZM2.81827 6.02954C2.27775 6.17632 1.80367 6.50292 1.47349 6.955L3.0886 8.13459C3.15139 8.04861 3.24103 7.98717 3.3424 7.95964L2.81827 6.02954ZM1.47349 6.955C1.14336 7.40702 0.976545 7.95779 0.999946 8.51688L2.9982 8.43325C2.9937 8.32595 3.02576 8.22063 3.0886 8.13459L1.47349 6.955ZM0.999946 8.51688C1.02335 9.07598 1.23561 9.6109 1.60247 10.0337L3.11311 8.723C3.04342 8.64268 3.00269 8.54053 2.9982 8.43325L0.999946 8.51688ZM1.60247 10.0337C1.96938 10.4566 2.46922 10.7423 3.02019 10.8431L3.38029 8.87579C3.27706 8.85689 3.18274 8.80326 3.11311 8.723L1.60247 10.0337ZM2.89825 8.90613C2.31666 9.09037 1.82071 9.47702 1.49953 9.99536L3.19961 11.0488C3.26961 10.9358 3.37715 10.8524 3.50223 10.8128L2.89825 8.90613ZM1.49953 9.99536C1.17839 10.5136 1.05294 11.1297 1.14543 11.7322L3.12227 11.4287C3.10199 11.2966 3.12958 11.1618 3.19961 11.0488L1.49953 9.99536ZM1.14543 11.7322C1.23792 12.3347 1.54241 12.8848 2.00464 13.2827L3.30935 11.7668C3.20918 11.6806 3.14255 11.5608 3.12227 11.4287L1.14543 11.7322ZM2.00464 13.2827C2.46693 13.6806 3.05642 13.8998 3.66657 13.9001L3.66741 11.9001C3.53647 11.9 3.40944 11.853 3.30935 11.7668L2.00464 13.2827ZM3.66699 13.9001H7.80969V11.9001H3.66699V13.9001ZM7.73314 13.8971C7.8472 13.9059 7.88512 13.9154 7.88165 13.9145C7.88003 13.9141 7.76647 13.886 7.64134 13.7729C7.49484 13.6404 7.43078 13.4825 7.40738 13.3784C7.39166 13.3084 7.39634 13.266 7.39634 13.3399H9.39634C9.39634 13.2659 9.43388 12.6973 8.98263 12.2893C8.7805 12.1065 8.5551 12.0237 8.39124 11.9805C8.22553 11.9368 8.05081 11.9156 7.88624 11.903L7.73314 13.8971ZM7.39634 13.3399C7.39634 13.2676 7.40596 13.2228 7.40344 13.237C7.40298 13.2397 7.40018 13.2542 7.39301 13.2838C7.37883 13.3423 7.35534 13.4276 7.32231 13.5363C7.25675 13.7523 7.16387 14.0273 7.06051 14.3043L8.93435 15.0034C9.05043 14.6923 9.15701 14.3777 9.23604 14.1174C9.27531 13.9881 9.31041 13.8635 9.33673 13.755C9.35388 13.6842 9.39634 13.5104 9.39634 13.3399H7.39634ZM7.0525 14.3266C6.79163 15.0797 6.44483 16.1035 6.32754 17.1025C6.21264 18.0812 6.28715 19.3006 7.17792 20.1899L8.59096 18.7745C8.35646 18.5404 8.22315 18.1087 8.3139 17.3357C8.40227 16.5829 8.6746 15.7542 8.94235 14.9812L7.0525 14.3266ZM7.20648 20.2173C7.5782 20.5601 8.20043 21.031 8.98401 20.9984L8.9009 19.0001C8.94339 18.9984 8.93734 19.0127 8.86578 18.9754C8.79267 18.9373 8.69086 18.8656 8.56239 18.7471L7.20648 20.2173Z" fill="#FF5252"/>
<mask id="path-2-inside-1_545_3413" fill="white">
<path d="M20.3731 11.4086C20.4555 11.4089 20.5371 11.3929 20.6133 11.3614C20.6895 11.33 20.7587 11.2838 20.817 11.2254C20.8753 11.1671 20.9214 11.0977 20.9528 11.0214C20.9842 10.945 21.0003 10.8632 21 10.7807V1.82745C21.0003 1.74487 20.9843 1.66303 20.9529 1.58668C20.9215 1.51032 20.8753 1.44095 20.8171 1.38256C20.7588 1.32417 20.6896 1.27792 20.6134 1.24647C20.5372 1.21503 20.4555 1.19901 20.3731 1.19934H16.9256C16.8432 1.19903 16.7616 1.21507 16.6855 1.24653C16.6093 1.27799 16.5401 1.32424 16.4818 1.38263C16.4236 1.44102 16.3774 1.51038 16.3461 1.58672C16.3147 1.66307 16.2987 1.74488 16.299 1.82745V10.7807C16.2987 10.8632 16.3147 10.945 16.3461 11.0213C16.3775 11.0976 16.4237 11.167 16.4819 11.2253C16.5402 11.2837 16.6094 11.3299 16.6855 11.3614C16.7617 11.3928 16.8433 11.4089 16.9256 11.4086H20.3731Z"/>
</mask>
<path d="M20.3731 11.4086L20.3852 8.40856H20.3731V11.4086ZM21 10.7807H18L18 10.7907L21 10.7807ZM21 1.82745L18 1.81645V1.82745H21ZM20.3731 1.19934V4.19936L20.3852 4.19931L20.3731 1.19934ZM16.9256 1.19934L16.9146 4.19934H16.9256V1.19934ZM16.299 1.82745H19.299L19.299 1.81646L16.299 1.82745ZM16.299 10.7807L19.299 10.7907V10.7807H16.299ZM16.9256 11.4086V8.40854L16.9146 8.40858L16.9256 11.4086ZM20.3611 14.4085C20.8403 14.4105 21.3149 14.3173 21.7576 14.1346L19.469 8.58827C19.7594 8.46845 20.0708 8.40733 20.3852 8.40859L20.3611 14.4085ZM21.7576 14.1346C22.2003 13.952 22.6021 13.6835 22.9401 13.345L18.6939 9.10587C18.9153 8.88411 19.1787 8.70808 19.469 8.58827L21.7576 14.1346ZM22.9401 13.345C23.278 13.0065 23.5454 12.6047 23.7271 12.163L18.1785 9.87977C18.2975 9.5907 18.4725 9.32762 18.6939 9.10587L22.9401 13.345ZM23.7271 12.163C23.9089 11.7212 24.0016 11.2481 24 10.7707L18 10.7907C17.999 10.4784 18.0596 10.1688 18.1785 9.87977L23.7271 12.163ZM24 10.7807V1.82745H18V10.7807H24ZM24 1.83845C24.0017 1.36094 23.9092 0.887638 23.7275 0.44577L18.1783 2.72758C18.0594 2.43843 17.9989 2.12879 18 1.81645L24 1.83845ZM23.7275 0.44577C23.5458 0.00388813 23.2784 -0.398031 22.9405 -0.736637L18.6936 3.50175C18.4722 3.27992 18.2972 3.01675 18.1783 2.72758L23.7275 0.44577ZM22.9405 -0.736637C22.6026 -1.07526 22.2007 -1.34386 21.7579 -1.52662L19.4688 4.01956C19.1784 3.8997 18.915 3.72359 18.6936 3.50175L22.9405 -0.736637ZM21.7579 -1.52662C21.3151 -1.70936 20.8404 -1.80256 20.3611 -1.80064L20.3852 4.19931C20.0707 4.20058 19.7592 4.13942 19.4688 4.01956L21.7579 -1.52662ZM20.3731 -1.80066H16.9256V4.19934H20.3731V-1.80066ZM16.9367 -1.80064C16.4575 -1.80241 15.9829 -1.7091 15.5402 -1.52627L17.8307 4.01933C17.5404 4.13924 17.229 4.20047 16.9146 4.19932L16.9367 -1.80064ZM15.5402 -1.52627C15.0976 -1.34344 14.6959 -1.07481 14.358 -0.736211L18.6056 3.50147C18.3843 3.7233 18.121 3.89942 17.8307 4.01933L15.5402 -1.52627ZM14.358 -0.736211C14.0202 -0.397621 13.753 0.0042448 13.5714 0.446047L19.1207 2.7274C19.0019 3.01652 18.8269 3.27966 18.6056 3.50147L14.358 -0.736211ZM13.5714 0.446047C13.3898 0.887834 13.2972 1.36104 13.299 1.83845L19.299 1.81646C19.3001 2.12873 19.2396 2.4383 19.1207 2.7274L13.5714 0.446047ZM13.299 1.82745V10.7807H19.299V1.82745H13.299ZM13.299 10.7707C13.2974 11.248 13.39 11.721 13.5717 12.1627L19.1205 9.87995C19.2394 10.169 19.3 10.4784 19.299 10.7907L13.299 10.7707ZM13.5717 12.1627C13.7534 12.6044 14.0207 13.0061 14.3585 13.3445L18.6054 9.10615C18.8266 9.32788 19.0016 9.59093 19.1205 9.87995L13.5717 12.1627ZM14.3585 13.3445C14.6963 13.683 15.0979 13.9515 15.5405 14.1343L17.8305 8.58849C18.1208 8.70835 18.384 8.8844 18.6054 9.10615L14.3585 13.3445ZM15.5405 14.1343C15.9831 14.317 16.4576 14.4103 16.9367 14.4085L16.9146 8.40858C17.2289 8.40743 17.5402 8.46863 17.8305 8.58849L15.5405 14.1343ZM16.9256 14.4086H20.3731V8.40856H16.9256V14.4086Z" fill="#FF5252" mask="url(#path-2-inside-1_545_3413)"/>
</svg>
