<svg width="21" height="21" viewBox="0 0 21 21" fill="none" xmlns="http://www.w3.org/2000/svg">
<path d="M10.0538 15.7534C9.87913 15.7534 9.73755 15.895 9.73755 16.0697C9.73755 16.2443 9.87913 16.3859 10.0538 16.3859C10.2284 16.3859 10.37 16.2443 10.37 16.0697C10.37 15.895 10.2284 15.7534 10.0538 15.7534V15.7534" stroke="#212527" stroke-linecap="round" stroke-linejoin="round"/>
<path d="M10.0532 13.2199V6.88647" stroke="#212527" stroke-linecap="round"/>
<path fill-rule="evenodd" clip-rule="evenodd" d="M11.4222 1.40592C11.1658 0.883949 10.6349 0.553223 10.0533 0.553223C9.47179 0.553223 8.94087 0.883949 8.68447 1.40592L0.684967 17.7022C0.489201 18.1004 0.512868 18.5715 0.747564 18.9481C0.98226 19.3247 1.39473 19.5535 1.83849 19.5532H18.2682C18.7119 19.5535 19.1244 19.3247 19.3591 18.9481C19.5938 18.5715 19.6175 18.1004 19.4217 17.7022L11.4222 1.40592Z" stroke="#212527" stroke-linecap="round" stroke-linejoin="round"/>
</svg>
