<svg width="20" height="20" viewBox="0 0 20 20" fill="none" xmlns="http://www.w3.org/2000/svg">
<path d="M19.9175 7.21362C19.7223 6.69089 19.22 6.34339 18.6577 6.34201H13.2095L11.2583 0.865142C11.0609 0.341858 10.555 -0.00362663 9.99136 2.87273e-05C9.42777 0.00368409 8.92641 0.355702 8.73593 0.881502L6.7912 6.34201H1.343C0.778145 6.34253 0.273877 6.69304 0.0809244 7.21927C-0.112028 7.7455 0.0475037 8.33517 0.480199 8.69508L5.0931 12.4842L3.15754 18.241C2.97107 18.7911 3.16557 19.3976 3.63827 19.74C4.11097 20.0825 4.75298 20.082 5.22514 19.7388L10.0003 16.2705L14.7746 19.7406C15.2462 20.0831 15.8871 20.0839 16.3596 19.7426C16.8321 19.4013 17.0276 18.7963 16.8431 18.2464L14.9066 12.486L19.5296 8.68781C19.9566 8.32478 20.1112 7.7371 19.9175 7.21362Z" fill="#FF5252"/>
</svg>
