<svg width="114" height="15" viewBox="0 0 114 15" fill="none" xmlns="http://www.w3.org/2000/svg">
<path d="M6.496 12.192C10.192 12.192 12.608 9.792 12.608 6.272V6.144C12.608 2.592 10.032 0.4 6.544 0.4C3.12 0.4 0.496 2.736 0.496 6.224V6.352C0.496 9.792 2.8 12.192 6.496 12.192ZM6.56 9.616C4.976 9.616 3.92 8.416 3.92 6.336V6.208C3.92 4.128 4.928 2.96 6.544 2.96C8.16 2.96 9.184 4.16 9.184 6.192V6.32C9.184 8.368 8.176 9.616 6.56 9.616ZM20.8214 3.632H13.2694V5.584H15.6214V12H18.4694V5.584H20.8214V3.632ZM26.9524 12H30.1524L27.1924 7.392L29.9284 3.632H26.9524L24.6964 6.944V3.632H21.8324V12H24.6964V8.336L26.9524 12ZM34.3628 8.432C34.4588 7.6 34.4908 6.64 34.5068 5.584H36.1708V12H39.0188V3.632H32.0268C32.0268 3.632 31.9788 7.168 31.9308 7.76C31.8028 9.264 31.4828 9.936 30.9068 9.936C30.7148 9.936 30.6028 9.888 30.6028 9.888V12.048C30.6188 12.048 30.9068 12.208 31.5628 12.208C33.4188 12.208 34.1068 10.816 34.3628 8.432ZM43.587 12L46.211 6.912V12H49.059V3.632H46.211L43.587 8.72V3.632H40.739V12H43.587ZM55.8899 12H59.0899L56.1299 7.392L58.8659 3.632H55.8899L53.6339 6.944V3.632H50.7699V12H53.6339V8.336L55.8899 12ZM65.3803 12H68.2283V3.632H65.3803V6.768H62.8683V3.632H60.0203V12H62.8683V8.72H65.3803V12ZM71.1738 14.8H73.9098L78.3898 3.632H75.6538L74.0538 8.096L72.3258 3.632H69.2218L72.5658 11.152L71.1738 14.8ZM86.2276 3.632H78.6756V5.584H81.0276V12H83.8756V5.584H86.2276V3.632ZM87.2546 12H91.5266C93.8146 12 94.8866 10.912 94.8866 9.136V9.088C94.8866 7.312 93.7026 6.128 91.6386 6.128H90.1026V3.632H87.2546V12ZM90.1026 10.048V8.08H90.7906C91.5586 8.08 91.9586 8.384 91.9586 9.072V9.12C91.9586 9.824 91.5426 10.048 90.7906 10.048H90.1026ZM100.113 12.192C102.817 12.192 104.241 10.816 104.321 8.704H101.745C101.649 9.616 101.089 10.096 100.289 10.096C99.2005 10.096 98.6405 9.344 98.6405 7.888V7.76C98.6405 6.352 99.2325 5.632 100.241 5.632C101.073 5.632 101.457 6.064 101.585 6.848H104.273C104.113 4.304 102.225 3.408 100.177 3.408C97.7125 3.408 95.7125 5.008 95.7125 7.792V7.92C95.7125 10.736 97.6165 12.192 100.113 12.192ZM110.175 5.552V7.44H109.391C108.623 7.44 108.223 7.2 108.223 6.496V6.448C108.223 5.888 108.639 5.552 109.391 5.552H110.175ZM109.295 9.264H110.175V12H113.023V3.632H108.703C106.415 3.632 105.343 4.8 105.343 6.416V6.464C105.343 7.536 105.871 8.24 106.735 8.656L104.847 12H107.903L109.295 9.264Z" fill="#FF5252"/>
</svg>
